<svg xmlns="http://www.w3.org/2000/svg" width="1080" viewBox="0 0 810 474" height="632" version="1.0"><defs><clipPath id="a"><path d="M0 26h810v447H0Zm0 0"/></clipPath></defs><path fill="#fff" d="M-81-47h972v568H-81z"/><g clip-path="url(#a)"><path d="M21 28c-1 2-2 4-1 5s-3 2-8 1c-1 0-2 1-1 2l5 1c2-1 5 0 7 2l3 1-3-3c-2-1-2-2-1-5 1-2 2-4 1-5 0-1-1-1-2 1m250 8c-1 1 2 2 6 2 9 0 19 3 18 5h-5c-3-2-6-1-6 2l6 3h9c2 0 3 2 3 4 0 3-2 3-6 1h-4l-1 2-2-2c1-2-1-2-4-2-4 0-5 0-5-4l3-6c2-1 1-1-5-1s-6 0-3 1c5 2 5 4-1 3-3 0-5 0-5 3-1 5 1 11 4 11 1 0 2 1 2 3l-1 1-4 2c-2 2-2 3 0 4 2 2 2 2 0 3l-3 21c0 10 0 16 1 14 1-6 5-7 13-5h7l6-2 6-2c1-1-2-1-6-1-6 0-7-1-7-4 0-2 1-3 3-3l3-2 5-5c3-2 3-2-1-1-5 1-5 1-4-2s0-4-1-4c-3 0-6-7-3-8s1-4-4-4c-3 0-6-2-6-3s1-2 5-1l7-1c2-3 6 1 5 5-1 3 0 4 6 4 6-1 6-1 2-3l-5-2 1-3c1-1 3-3 6-3 2 0 3 0 2-1-1 0-2-2-2-5s1-4 8-3c9 0 11-1 6-4-7-4-4-5 9-5 7 0 13-1 13-2s-13-2-35-2-35 1-36 2m73 0c0 1 2 2 5 2 4 0 6-1 6-2s-2-2-5-2l-6 2m16 1h4c2 0 1-1-2-1l-2 1m12 1c4 2 4 2 1 5l-10 2-8 1c0 1 2 2 5 2l5 2-1 1c-1 0-2 1-2 3 0 1-1 2-3 1s-2 0-1 2l1 5 2-1 3-2 3-1c3-1 4-2 2-5v-3c1 1 2 0 4-1 3-4 5-3 5 1s0 4 2 1c3-4 5-4 4 2-1 10-1 10 16 10 10 0 15 0 16-2s1-2 2 0 5 2 14 2h14v11c0 17 2 10 2-9l1-18h-6l-30-1c-21 0-25 0-25-2 1-2 0-3-2-3-2-1-3 0-4 1h-3c-1-2 0-3 4-4 8-1 14 0 15 3 0 1 0 2-2 1h-1c1 2 4 2 7 2 5 0 5 0 2-2-3-3-3-3 0-3l11-2-23-1c-20 0-23 0-20 2m51 0 4 1 4-1c0-1-2-2-5-2-2 0-4 1-3 2m14 1 3 4v-4c0-2-1-3-2-3-2 0-2 1-1 3m6-1 4 2c2-1 2 0 2 3s1 5 2 5 2 2 1 4c0 3 0 4 2 4 1 0 2-1 2-4v-4h45l2 5c4 7 5 6 3 0l-1-5h17l18 3 3 2c3 0 3-1 3-4-1-3-2-5-4-5l-2-1c0-1-1-2-3-2-1 0-2 1-1 2 1 2-7 3-9 1-1-1 1-2 3-3 9-3 17-2 17 4l2 3h3l2 2c0 4-2 5-8 5s-9 2-6 4c2 1 0 8-3 8-2 0-1 1 2 2s4 2 4 5-1 4-4 3l-2 1 6 2c4 1 4 1 1 2l-3 1 3 1c3 1 3 1 1 1s-3 1-3 3l5 1c2 0 3 1 3 2 0 3-4 8-6 8l-2 2c0 3 5 2 6-2 0-2 1-3 2-3l3-4c0-3 1-3 3-2 1 2 3 2 4 1 3-1 3 1 1 4-1 2-3 2-4 2-5 0-7 1-9 5-3 6-4 8-1 7h2c0 2 3 2 7 3 4 0 6 0 5 2-1 1 0 2 2 2s3-1 2-2c-1-2 0-3 1-3l1 3c0 3-1 4-6 4-6 0-15 3-13 5 4 2 3 6-2 6-7 1-8 2-4 5s4 5 1 3c-2 0-3 0-2 3 1 2 3 4 6 4 3 1 5 3 5 4s-1 2-3 1l-2 1c0 1-1 2-3 2l-2-2 1-1c1 1 1-1-1-4-2-4-4-7-3-8l-2-4c-1-4 2-7 7-6l3-1-5-1-7-1c-2-1-2-1-1 1l-1 4c-1 1-15-8-28-17l1-6c2-6 7-7 7-2 0 2 0 1 1-1 3-8 2-9-3-9-10 1-11 0-10-3v-1c-2 1-2 3-1 4 7 12-5 20-20 14-11-3-28-7-39-8-25-2-33-4-34-5-1-3 19-3 21 0 1 2 1-5-1-8-1-1-1-1-2 1s-3 3-9 2l-10-2c-1-1-1 1-1 4 1 6 1 6-11 8-7 1-8 0-8-2 0-3 0-3-2 0l-5 3c-3 0-17 4-25 8-6 2-9 3-9 0l-3-1-4 1c-2 4-4 2-5-3v-8c3-3-1-5-9-4-7 0-8 1-7 4 1 2 0 6-1 8v3c1 0 3-2 4-5 4-6 6-6 8 1l3 6c1 1-3 2-8 2-8 0-9 0-3 1l6 1-9 6-9 6-5 3-4 3c-1 0-2 2-2 5 0 2-1 6-4 8-5 5-6 10-1 9s6 2 3 5-20 3-20 1l-1-5c-1-2 0-3 3-2 5 2 10 0 10-2 0-1-1-2-3-2-1 0-2-1-1-2l1-5 3-1c5 2 7-1 6-7-1-4-2-6-6-6-6-1-6-2-2-6l3-8c0-4 1-6 3-6l3-1c0-2-5-4-7-3-1 1-2 0-2-1-1-1-3-1-5 1h-4c-3-4-6-3-6 2v4c-1-1-3 1-4 4-1 7-3 63-1 58 1-3 1-3 1 1 1 2 0 4-1 4l-2 5c-1 4-1 5 1 4s3 0 3 1c0 2 1 3 3 4s2 1 0 1-3 1-3 3c0 1 1 2 6 2 6 0 7 1 8 4 1 5 0 6-5 3l-7-2 2 2c3 1 3 1 0 2l-7 1c-1 0-4-2-7-8-6-9-6-11 0-6 2 3 3 3 3 0l-10-7c-6-3-9-5-7-5 5-2 5-6 0-6l-4-2h5l4-1c0-1-4-2-9-2l-8-2c0-2 2-2 16-5l8-1-6-1c-6 0-7 0-4-1l4-2h-4l-9 2c-13 5-13 5-9 2l7-4c1 0 2-1 1-2s1-2 3-4c3-1 4-2 4-4l1-4-7 3-10 4 6-7c7-8 4-9-4-1-6 6-10 5-9-2 1-6-2-9-4-5-2 5-5 4-5-2v-4l-2 4-3 9c-1 6-4 5-12-2-8-8-11-8-4-1 5 7 5 8 1 8-2 0-2 0 1 1l7 7 4 6-6-5-8-6-5-2c-1-1-2-2-3-1l5 6c5 6 5 7 0 4l-10-3c-7-1-6 0 6 5l6 2-7 2-12 2c-7 1-12 4-5 4 5 0 5 0 2 2l-5 1h-5c-1 1 0 2 5 2h8l-7 6c-4 3-6 6-5 6s-1 3-6 7c-4 3-7 7-6 7l5-4c5-5 8-4 3 1l-2 4c3-2 4 4 1 8-4 6-1 9 4 3l4-5-1 8c0 5 0 7 1 5s2-1 2 2l1 5c2 0 7-10 6-11h1c1 1 2 3 1 6-1 6 0 6 4-1 2-3 4-4 4-3 0 2 0 2 1 0 2-4 2-4 2 0s0 4 2 1c3-3 3-2 2 3 0 5 0 5 2 2 1-2 2-4 4-4l3 4v52l-1 27c0 17-1 26-2 27-2 1-2 1 0 2 1 2 2 13 1 32-1 3-2 3-8 2-5 0-6 0-5 2 1 1 2 2 1 3h4c2 0 4 1 5 3 1 4 0 12-1 12h-8c-5 0-6-1-5-3s0-2-3-2-5 1-5 3 1 3 3 2c1 0 3 0 3 2l-4 2c-3 1-3 2-1 4 3 3 3 4 0 6-3 3-3 13 0 13l1-2c-1-1 0-4 2-5 3-3 3-3 3-1 0 4 2 4 5 1 2-2 2-1 2 2 0 2-1 3-2 3-3 0 0 2 3 3 2 0 4 2 4 5 0 2 1 5 3 6 2 2 11 0 11-2l3-3c3-1 4-1 8 2s5 3 8 2l15-2h12v17l-2 20-1 3c2 3-67 6-142 6-17 0-26 0-25 2a28890 28890 0 0 0 629-2c-7 0-8-1-9-6-4-11-5-11 20-12h21l-18-1-15-1c2-2 0-10-2-9s-6-2-6-4l2-1c4 0 3-2-2-7l-4-4 6 1 19 2c11 1 11 1 9-2-2-5-2-6 1-5 2 1 3 0 2-2l-1-10c-1-7-1-7-1-3-1 6-2 7-7 3-3-2-4-4-4-12 0-9-1-10-6-9v-3c1-3 0-4-5-4-3-1-6 0-6 1h-2c-2 0-4 1-5 4s-3 5-4 5c-3 0-3 4 0 7s4 9 1 12c-3 1-2 2 1 2s4 0 3 1c-2 1-2 1 0 4 2 4 0 7-3 3v2c1 4 1 4-3 1-3-1-5-5-6-10 0-4-2-8-3-8v-2c3-2 2-11-1-13-1 0-5 0-8 2h-7c-1-2-3-2-5-2-3 0-4-1-4-5 0-3 1-4 4-4 5 0 10-2 9-3l-8-1c-6 1-7 1-7-2 0-5 4-8 6-5l1 3 1 1c2 0 3-1 4-3 0-2 2-4 7-5 4 0 7-1 7-2s-2-2-4-1l-14 2c-9 1-10 1-10-2 0-5 3-7 5-3l3 2 2-1c-1-2 9-7 14-7l4 2c3 3 3 3 5-1 1-3 3-4 8-5l9-3v-10c-2-11-2-15 1-15l2-1v-4c0-1-1-3-3-3l-3-1c0-1 6-2 16-2 16 0 16 0 15-4l-1-11c0-13 0-13-43-12l-38 1-1-5-1-7c2-2 8-3 8-1l2-2c1-2 3-3 5-3 4 0 5 4 1 5-1 1 2 1 7 1 7 0 9 0 6-1-3-2-3-2 1-3 4-2 4-2 1-5-2-2-2-4-1-6 0-3 0-4-2-3-3 1-11-2-11-4s12-2 17 1c5 2 5 2 3-1-1-2-5-5-10-7l-9-5c0-2 5-2 11-2l4-2c0-2-1-2-7-2h-13l-4-1 4-2 8-3c3 0 4-1 3-2-1-4-4-3-13 3l-7 5 6-7 7-8c0-2-5-1-10 4s-4 2 3-7l6-7-6 3c-3 1-6 5-7 7s-3 4-4 3 3-11 6-13c2-1 2-1 0-1-1 0-4 3-6 7-3 7-3 7-5 4-2-6-4-7-5-2-1 3-2 3-5-2-4-6-6-7-4-2l1 4-5-4c-4-4-8-3-6 1l-1 2-1 3c1 2 0 2-5 2-8 0-12 3-5 4 4 1 6 3 6 4 0 2 1 3 3 3s3 1 3 2h-6c-7-1-13 1-18 7-3 2-4 2-6 1-3-3-3-1 2 6 3 6 3 7-2 4-6-3-8 0-4 4 4 2 4 3 2 3l-4-2-3-1h-2c-1-1 0-3 1-3a348 348 0 0 0-5-104c3-2 4-18 1-18l-2-4c0-2 0-3-1-2l-1 3c0 3-9 2-9-1-1-2 0-3 3-3 9 0 10-1 10-12l-1-5c-1 3-2 3-7 2-12-2-13-3-7-7 2-2 4-2 6 0h3c1-1 2-2 4-1l2-1-1-2-1-10c1-9 0-10-2-10s-3-1-2-3c0-1 0-2-1-1l-1-2c0-1 0-2 2-2 3 2 4-1 3-5-2-3-2-3-2 0s-3 4-5 1c0-2 0-2 2-1 1 1 1 1 1-1-1-2-1-3 1-3s3-2 3-5c0-4-1-5-3-4s-2 1-1 2c2 1 2 2 1 3s-4-2-4-5l3-3c6-1 4-4-3-4l-7-1 4-2c3 0 4-1 3-2l1-1c1 1 2 2 1 3l1 2c2 0 4-5 2-6a1172 1172 0 0 0-93 2c11 0 16 1 16 2 1 2 2 2 4 1l5-2 5-1c8-1 25 0 24 2 0 1-2 2-3 1l-4 1h-4c-2-2-3-2-3 0l-10 2c-28 0-35-1-34-2s0-2-1-2c-2 0-3 1-2 2 0 2-2 2-6 2-7 0-9-3-5-5 2 0 2 0 0-1-1 0-2 0-1-1s-1-2-4-2c-4 0-5 1-5 2m-142 2c-2 1-3 6-1 6 3 0 9-4 8-5-1-2-3-2-7-1m11 1 2 2v-2l-1-2c-1 0-2 1-1 2m103 2c-2 1-2 1 1 1l3-1c0-2-1-2-4 0M40 47l-2 8c0 2 0 3 4 3l9 1c5 1 5 2 5 8l-2 12-2 7c1 1-3 1-9 1H32c0 1 10 2 21 2h21l1-5c0-4-2-8-15-23L43 43l-3 4m290-1c0 1-1 2-2 1s-2 0-2 1c0 2 6 1 7-1l-1-3-2 2m17 0 2 2c2 0 3-1 3-2s-1-2-3-2l-2 2m-77 5c0 3 1 4 1 2v-4l-1 2m60 2-2 1c-1-1-2 0-2 1-1 1 1 1 5 1 5 0 6 0 4-2-3-3-5-4-5-1m198 1 2 2 1-3c-2-3-3-2-3 1M7 55l2 1v-1l-1-2-1 2m369 1 2 2 2-2c1-1 0-1-1-1l-3 1m85 0c-2 0-2 2-2 4 1 3 1 3 4 0 1-1 3-2 5-1 1 0 2 0 2-2s-3-3-9-1M22 58l3-1h-2c-2 0-2 0-1 1m451 4v6l-10-1c-10-1-11-1-9 2 2 1 2 4 2 6-1 3 0 3 4 3 5 0 6-1 3-4s0-3 3-1c2 1 2 3 1 4 0 1 0 2 3 1 3 0 4-1 4-5-1-3 0-5 1-5s2-1 1-4c-1-2 0-4 1-4l1-2-2-2c-2 0-3 2-3 6M10 64v3c2 2 7 0 7-2 0-1 2-2 3-1l6-1c1-1-2-1-6-2-7 0-9 0-10 3m536-2c-1 2-1 4 1 5v-2c0-2 0-3 3-4s3-1 0-1l-4 2m-233 5-1 1 3-1c2-2 1-2-2 0m50 1h8c2-1 0-1-4-1-5 0-7 0-4 1m16 0h3c1-1 0-1-2-1s-2 0-1 1M44 72c0 2 1 3 2 2l2-3c0-2-1-3-2-3l-2 4m236 0c-1 3 0 3 3 3s4-1 3-3l-1-3c0-2-5 0-5 3m179-2 4-1-3-1c-2 1-2 1-1 2M10 71h3l-2-1c-2 0-2 1-1 1m542 2 4 2c3 0 3 0 1-2l-4-3-1 3M36 74c-2 3-2 3 1 2l2-3c0-2-1-2-3 1m375 1v3l1-1c0-3 10-2 11 0v-1c0-2-2-3-6-3-3-1-6 0-6 2m-90 6c-2 3-1 5 1 4h5c3 3 5 0 4-3-2-2-9-2-10-1m186 0c-5 2-3 6 2 5l5-3c-1-2-3-3-7-2m44 0c-5 2-2 6 4 6s7-1 3-5c-2-2-4-2-7-1m11 3c0 2 1 3 2 3s2-1 2-3-1-4-3-4c-1 0-2 1-1 4m-70 3 2 2 1-2-2-2-1 2m35 0c0 1 0 2 2 2l2-2-1-2-3 2m-174 2c-4 2 0 2 6 0 3-1 3-2 1-2l-7 2m93 1c0 2 1 2 1 1v-3c-1-1-1 0-1 2m91-1 1 2 2-2-1-2-2 2m-262 4c0 2 1 3 2 3s2-1 2-3l-2-2-2 2m7 0c0 2 1 3 2 3l1-3-1-2-2 2m86 2c-2 2-2 3 0 2l6 1c3 2 6-2 4-5l-2 1c-1 2-2 2-4 0-1-1-3-1-4 1M96 111c-3 21-3 23 2 26 2 2 3 3 1 3l-5-2c-1-2-2-1-2 2 0 2 1 3 2 3s3 1 3 3c1 3 0 3-2 1l-3-2c-2 6-1 12 2 15 3 2 3 3 2 4l-4-2c-1-1-2-1-2 3-2 6 0 10 4 8l3 1c0 1 0 2-1 1-1 0-2 0-2 2s0 3-2 1c-3-3-4-2-5 4 0 3 1 7 3 8l2 4-2-1c-3-3-5-2-5 4 0 5 2 8 4 10l4 3-4-1c-4 0-5 0-6 5 0 4 1 6 4 8l4 4-4-1c-4-1-5-1-5 3 0 7-2 11-4 10-2 0-3 1-3 6 0 9-1 9-6 4l-6-3c-3 0-5-1-5-3s-1-3-2-3c-2 0-2 2-2 5l2 4c1-2 3-1 4 2 4 5 2 6-5 2-7-3-8-3-5 0 1 2 1 3-5 3s-8 0-9 3c-2 3-2 3 2 1h6c1 1 0 2-1 2l-2 2c0 1 1 2 3 1l5-2c3-1 3 3-1 8-2 3-3 3-3 1 2-3 1-3-5-1-10 4-13 6-13 8s2 1 7-1c10-6 10-3 0 2l-9 8c-1 2-1 2 1 0 4-3 4-2 0 6-2 5-3 10-2 14 0 6 1 7 6 7l6-1 2-2 1 9c0 6 1 8 2 8 2-1 3 1 3 5s-1 7-2 7c-2 0-1 7 2 12 1 4 2 7 1 12-2 9-1 10 10 9l8 2c1 2 6 3 10 3 15 0 17 0 18 3v3c-2 1-3 6-1 6l3-4c2-4 3-4 13-4l11 1c2 2 12-1 13-4 0-2-1-3-2-3l-4-5c-2-5-2-5 0-5l2 2c0 3 3-1 3-5 0-2 2-4 4-4 4-1 4-1-2-3l-8-4 1-2c4 1 6 0 6-3l-2-4-2 2-1 2c-1 0-2-1 0-3v-5c-2-1-2-2 0-3 1-1 2-1 3 1h3c1-3-1-9-4-13-2-1-2-3-1-4l4 2c1 2 1 2 2 1s1-2-1-2c-1 0-1-2 1-9 1-2 1-3-1-2s-3 0-3-1c0-2 1-3 2-3l1-2c-1-1 0-2 1-2 4-2 4-5 0-5-2 0-2-1-2-4 2-4-1-9-3-7h-2c0-1 2-4 6-6 6-3 8-8 3-6-3 1-3 1-1-1s1-3-1-5c-1-2-4-3-5-3l-2-2c0-2 2-2 5 1s8 2 8-1c0-1-1-2-2-1-1 0-2 0-2-2l2-2c1 0 1-1-1-2-3-3-2-5 2-4 2 1 3 0 2-2l-2-4c1-2-5-8-7-9-2 0-2-1-1-2l3 1c5 5 6 4 6-2 0-3-1-6-4-8-4-3-4-3-2-8 2-4 3-4 5-2 1 2 1 3-1 4-3 1-3 2-2 4l4 1c3-2 3-9 0-10-2-1-2-2 0-3 2-3 4-11 3-10s-8-6-8-8c0-1 2 0 3 2l2 1 2 1c2 2 2 1 2-3-1-4 0-7 1-9l-1-4c-2-2-2-5 0-3 1 1 2 0 1-4 0-2 0-4 1-3l2-12v-12l-10-11-36-39c-2-2-3 1-4 13m264-12c-1 1 0 2 1 2 2 0 3-1 3-2l-2-2-2 2m100 0 1 2 2-2-2-2-1 2m75 0 3-1h-2c-2 0-3 0-1 1m-103 6h4l-2-1-2 1m85 9c-3 2-3 2 0 2l4-2v-1l-4 1m-418 2c0 3 3 6 4 4v-4c-1-2-4-2-4 0m308 2-4 2-4 5c-1 4-4 4-4 0 0-2-2-4-7-4-10-2-15-2-18 1l-3 2c-1-1-5 0-9 2l-9 4c-3 0-2 3 1 4 2 0 2 1-1 1l-3 1-4 3-4 3 4-1c3-1 5-1 5 1l-2 1c-1-1-2 0-2 1-1 1 1 1 5 1 6 0 7-1 7-4l3-3c2 0 2 0 1-3-2-2-3-3-4-2l-1-1 2-3c4-1 5-1 5 2l1 6c2 3 3 3 4 1 2-2 1 0-1 9-1 2 0 3 1 3 2 0 3-1 3-2 0-3 2-3 15-2 9 0 14-1 14-2l-12-1c-10 1-12 0-13-2 0-1 0-4 2-5 2-3 3-3 3 1 0 3 2 4 4 1 0-2 1-2 3 0 3 3 5 3 5 0 0-2-2-3-6-3-7 0-5-4 3-5 6 0 6 0 6 5 0 4 1 5 4 6s5 2 5 4c0 1 0 2 1 1s2 0 2 1 4 2 11 2c10 0 11-1 13-4 1-3 1-4 2-1 0 2 0 3 2 2 1-1 4-2 7-1 20 2 20 2 25-2l3-2v3c1 1 2 0 2-2 1-3 3-4 6-4 4 0 4 1 3 5s0 4 5 3c11-2 16-5 15-7l-3-2h-1a1600 1600 0 0 1-31-15c-6-1-6 0-3 2 2 2 2 3 1 4-2 2-25 1-25-2v-2l4-2 9-1h5l-5-2c-7-2-43-3-43-1m-120 3c-1 3-1 4 1 4l4-4c2-2 2-3 0-3l-5 3m119 2c-3 5-2 10 1 7s16-2 18 0l2 6c1 2 1 2 2-2 2-6 2-12 1-11s-3 0-5-2c-6-5-15-4-19 2m26 0c1 7 4 8 3 2 0-3-1-5-2-5-2 0-2 1-1 3m-362 4c0 3 1 4 1 2v-5l-1 3m65 4 4 6c4 3 5 3 5 1 0-1-2-4-5-5l-4-2m176 1h2l1-1-1-1-2 2m120-1 1 3c1 1 2 0 1-2s-2-3-2-1m-164 2 2 2c2 0 2-1 2-2l-3-1-1 1m10 1 2 4c2 2 4 2 6 0 5-2 5-3 1-2-2 1-2 1-2-1 1-1 0-2-3-2l-4 1m63 1c-1 1-2 2 0 2l3-2c1-2 0-2-3 0m207 1c0 1 3 2 7 2s7-1 7-3l-7-1c-4 0-7 1-7 2m-219 1-3 1-4 2c0 1 2 2 5 2s4-1 4-4l-1-3-1 2m24-1c-2 1-2 6 0 6l2-4 1-3-3 1m-248 2a2 2 0 0 0 4 0l-2-1-2 1m380 1 1 4c1 0 2-1 2-3s-1-3-2-3l-1 2m-27 1c-1 2 3 4 5 2 1-1 0-2-1-2h-4m48 0c0 2 3 3 7 3 8 1 7-3-2-4-4-1-6 0-5 1m-402 4c0 2 1 3 2 3 3 0 3-1 1-3l-3-2v2m169 1-2 3c0 3 0 2 3 0 2-3 2-3 2-1s1 3 2 3c2 0 3-2 2-4-1-3-3-3-7-1m285 4c0 2 1 3 5 3s5-1 4-3c0-3-2-4-5-4s-4 1-4 4m-425 1c0 3 0 4 1 2v-4c-1-1-1 0-1 2m-65 2c0 2 0 3 1 2v-4c-1-1-1 0-1 2m42-1c0 2 2 3 3 3 2 0 3-1 1-3l-3-2-1 2m16 0c0 2 0 3 1 1v-3l-1 2m-24 1 2 3 1-2-1-3-2 2m59 1h4c2 0 1-1-2-1l-2 1m199 5v7l1-6c1-9-1-9-1-1m-242-2v4c2 2 3-1 2-4s-1-3-2 0m-8 1v3c3 1 4 0 2-3h-2m364 0 2 2 2-2-2-2-2 2m65 0 1 4c3 4 7 2 5-3-1-3-5-4-6-1m21 1 2 3 1-2-1-4-2 3m-493 2-1 6c0 7 4 6 5 0 1-5-2-8-4-6m259 1c0 2 1 3 2 3l-1 2c-4 1-4 1 0 1 3 0 4-1 4-4 0-2-1-4-3-4l-2 2m187 1-4 2-3 3 1 2v3c-4 4-1 7 8 7 7 0 9 0 9-2 0-4-1-5-2-5l-2-1 2-2 1-5c0-3-1-4-4-4l-6 2m-389 1c0 2 1 3 3 3s2-1 0-3l-2-2-1 2m193 1v7l-1 1c-1-1-2 0-2 1l2 3 8 1c6 1 7 1 7-3 0-2-1-3-5-3-5 0-6-1-5-3 1-1 0-4-1-5-3-2-3-2-3 1m-201 0 1 3 2-2c0-3-1-3-3-1m262 1c1 1 0 2-2 2l-2-1-4-2-4 2c-1 1 0 1 1 1 2 0 3 2 3 3 0 2 2 3 6 3 5 0 6-1 6-3-1-2 0-3 1-4h4c4-1 0-3-5-3-4 0-5 0-4 2m46-1c-3 0-5 1-5 2l1 3c0 1 1 2 2 1 2 0 3 0 2 1s2 2 6 2c6 0 7-1 7-5 0-3-3-6-7-5l-6 1m38 0c-1 1 0 1 2 1 4-2 5-3 1-3l-3 2m-362 3c0 1 1 2 3 2l2-1-2-3c-2 0-3 0-3 2m166 0c0 1 1 2 2 1v-2c-1-3-2-2-2 1m17-2c-2 2 0 7 3 8 2 1 3 0 4-1l4-3c4 0 3-3 0-3l-7-1h-4m115 3c-2 4-2 5 3 5 4 0 5-1 5-4-1-6-6-6-8-1m73-2-2 1c-1-1-1 0-1 2 0 3 0 4 2 3 3 0 5-6 2-7l-1 1m69 1-1 3h2l1-3h-2m-410 3 3 2c2-2 0-5-2-5l-1 3m352-1h5c1-1 0-1-2-1-3 0-4 0-3 1m9 0-2 2c-2 0-3 1-3 2 0 2 3 2 5 0 0-1 2-2 3-1 2 0 3 0 2-1l-3-3-2 1m-384 2 2 4c3 2 3 0 1-3-3-3-3-3-3-1m15 0 2 2c1 1 2 0 2-1 0-2-1-3-2-3l-2 2m214 0 2 2 1-2-2-2-1 2m118 2 3 1 1-1-3-2-1 2m-351 2v4l-3 1c-4-1-4-1-2 2l5 3a2 2 0 0 1 2 1v1c0 3 5 5 6 3 1-1 0-3-2-4-3-1-3-3-3-6 1-6-1-9-3-5m33 0 2 3 1-2-1-3-2 2m116-2 3 2c1 1 2 0 1-1l-4-1m191 1h7c2-1 0-1-4-1s-5 0-3 1m-314 3 2 2 2-1-2-3c-1 0-2 0-2 2m144-1c-3 1-2 3 2 3 3 0 3 1 1 2s-1 2 2 3c5 1 10-2 10-5s-11-5-15-3m69 0c-3 4-2 7 0 7s5-7 2-8l-2 1m17 0-1 41c0 48 0 44 2 44a4076 4076 0 0 1-1-86m-288 3-1 6c-1 3 0 4 6 3 6 0 6-1 7-5 0-5 0-5-6-6-4 0-6 1-6 2m44-1c-1 1 0 3 1 3 2 2 4 0 2-2s-2-2-3-1m250 2-1 4c0 1 1 2 3 2s3 0 2 2c-1 1 0 3 1 3 2 0 4-3 2-5-3-2-2-5 2-4 2 0 3 1 2 5l-1 5h16c12 0 17-1 17-3s-6-3-19-2c-7 0-8 0-7-3 0-1 2-2 4-1l3-1c0-3-5-5-14-5-8 0-10 1-10 3m42 2c3 3 6 5 9 5 4 0 4 0 1-1-3 0-4-2-3-3 0-2-1-3-2-3-3 0-3 0 0-1s2-2-3-2h-7Zm9-2c0 1 1 2 2 1l2-2-2-2c-1 0-2 1-2 3m34-1v4c1 2 0 3-3 4-4 1-5 5-1 6 4 2 5 1 3-1 0-1 0-2 3-1l13 3 2 2c-1 2-5 3-11 3-9 0-10 0-11-3-1-4-4-5-5-1-1 2-1 0-1-4 1-5 1-6-1-3-3 3-5 3-5 0l-1-2c-1 0-2 1-2 3 1 2 0 2-4 2s-4 0-3 3c0 3 0 4-7 4a87 87 0 0 0-13 1c-2 0-3 2-2 9v8l-7-1c-7 0-6 0 3 2 2 1 4 2 4 4 0 5-3 6-6 3s-10-3-9-1c0 2-1 3-3 3-4 1-6 4-2 4h7c4 0 3 1-3 1h-15c-5 0-5 0-5 11v12l7-1 8 2c0 1 1 2 2 1l1-2 7-1 8 1-6-2-7-3-3-3c-5-1-3-4 3-3 3 1 4 0 6-5 3-6 5-8 7-4 1 1 1 1 0 0-3-1-5 3-2 5 2 1 3 4 3 7 0 6 3 7 20 7l16 1 2-10c2-13 2-14 1-19-1-3-1-3 1-3 2 1 3 2 2 4-1 3 2 6 4 5 1-1 2-3 1-5s0-3 3-2c3 0 4 1 4 7 1 7 2 9 5 5l7-4c3-1 4 0 6 4 1 2 2 4 3 3 2-1 2-1 1-3-2-1-2-5-2-8 0-6 0-6-6-6-3 1-7 0-7-1-1-1 2-2 9-1 3 0 4-1 4-6 0-4-1-6-2-6l-2 2-4 4h-4l-3-1-2-2 3-1c4 1 5-1 1-3-4-1 2-4 10-4 2 0 3-2 2-6 0-4-1-5-3-5-4 1-4-3 0-4 2-1 4-3 4-5 0-3-1-3-3 0-3 3-6 2-6-3 0-2-1-3-7-3l-7 2m31 2c0 2 1 5 3 5l2 3h-2c-2 0-3 0-3 2 1 2 17 3 17 1l-3-1-4-2c1-2 5-7 6-6 2 2 5-2 5-5h-2c-1 2-2 2-2 1l-9-2c-7 0-8 0-8 4m69 0 3 1 4 2c2 3 4 2 4-2 0-2-1-3-5-3l-6 2m13 0c0 2 1 3 1 1v-3l-1 2m240 0-2 6c-1 2-2 2-5-2l-4-4v4c0 4 0 4-5 1-7-3-7-3-2 4l4 9 1 7 1 4-6-3c-4-2-6-3-6-1l-4 2 3 2c3 1 6 3 6 5 2 1-1 1-16-2-7-1-22 3-22 6 0 2 1 2 3 1 4-2 28-1 28 2 0 1-3 3-8 4-11 1-15 3-20 6-2 2-5 3-7 3-1 0-1 1 1 2h7c6-4 25-9 26-7 0 1-4 3-11 5-11 3-27 14-22 14l4-2c2-2 2-2 2 0 0 1 0 2-2 2l-2 6v4l4-4c4-5 12-11 18-12 3-1 2 0-4 4-14 12-19 17-18 18s2 0 3-1c1-2 1-2 1 1 0 4 3 3 5-1 1-4 4-4 4-1 0 2-1 3-2 3-3 0-5 7-3 12s4 6 6 3h3l4-3c2-2 3-2 2 0v3c3 0 7-5 13-14 4-8 8-10 4-3l-4 18c-1 7-1 7 2 3l2-4 2-6c2-6 6-3 6 5v3l4-4 2-5 2-4 1 2c0 2 1 2 3 1 2-2 3-2 3 1l1 4a427 427 0 0 0 0-91c-2 0-3-2-4-4-2-4-2-5-2-2m-453 1c0 2 4 8 5 7 2-2-1-9-3-9l-2 2m43 0 1 2 2-2-1-2-2 2m-271 4c0 2 1 3 2 2l1-3c-2-4-3-4-3 1m13-2 2 2 1-2-2-2-1 2m322 0v2c3 2 5 0 2-2-1-2-2-2-2 0m-364 3 2 4c1 1 2 0 2-2l-2-4c-1-1-2 0-2 2m457-2v1a2 2 0 1 0 0-1m-422 3c-1 3 2 7 4 5l-1-2c-1 0-2-2-1-3v-2l-2 2m146 3c0 3 6 4 8 1 1-1 0-1-1-1l-4-1c-2-1-3 0-3 1m75 1-2 2c2 0 3 1 3 3l1 2 2-4-1-4-3 1m-236 3 3 2c2 0 1-3-2-4-1-1-2 0-1 2m9-1 2 1c2-2 2-2-1-2l-1 1m-15 3v2c2 0 4-3 3-4l-3 2m327-1 1 1 2-1-1-2-2 2m103 0v1l2-1v-2l-2 2m-486 1 1 2c1 0 2-1 1-2l-2-1v1m46 1c1 2 5 4 5 2 0-1-1-3-3-3-2-1-2 0-2 1m63 2-2 4 4-4 3-4-5 4m-40 0 3 3c2 0 1-4-2-5-1-1-2 0-1 2m127 1c0 2 14 15 16 14 1-1-1-4-8-11-5-5-8-6-8-3m89 3c-2 4-3 18-2 37l2 6 1-3c-1-4 1-5 6-3 4 2 4 4 0 3-2 0-3 0-3 2 0 4 2 3 9-3 6-5 6-6 5-16 0-8-1-10-3-9-4 0-4-3 0-7 2-2 3-4 2-6-1-3-1-3-1 1-1 3-1 3-3 2-2-2-2-3-1-5v-2l-3 2c-1 2-5 2-6-2 0-2-1-1-3 3m30-4-1 7c0 3 1 4 3 3l3-1 1-2c0-2-1-2-2-2-2 1-2 1-1-1 1-3-1-6-3-4m122 0c-4 1-5 2-5 5l1 2 6-2 5-3c1-1 2-1 3 1 2 2 2 2 2-1s-2-3-12-2m-477 3c0 3-5 14-7 15l-1 10c1 9 1 10 7 11l11 2c5 1 6 1 6-2s-9-19-11-19v-2l-2-10c-1-5-3-7-3-5m115 0c0 3 2 5 4 4 1-2-1-6-3-6l-1 2m188 1c0 5 0 6 2 6v2c-2 2-2 3 0 3 3 0 7-7 4-8v-4c0-1-1-2-3-2s-3 1-3 3m123 0c0 3 3 4 5 2h14c3-3 1-3-10-4-6 0-9 0-9 2m68 1v10l1 13c-1 7-1 8 2 7 4-1 7 1 4 2-2 2 0 10 2 11 3 2 5-3 3-6-2-1-1-2 2-2 2 0 3 1 2 3-1 1 0 2 2 2s3-1 3-4-1-4-5-4l-4-2 4-1c4 1 4 1 5-4l-1-7c-1-1-2-4-1-8 0-4 0-6-3-6-1 0-2 0-2-2l-2-2c-2-1-3 0-2 4 0 6-2 7-4 3-1-4 1-9 5-10 2 0 1-1-3-1-5 0-7 1-8 4m24-1c0 3 1 4 1 2v-4l-1 2m-425 0 3 2c2 0 5 2 8 5 4 5 7 7 7 4 0-1-2-3-6-5l-5-6-3-1-4 1m456 0c0 2 3 6 4 5l-2-4c-1-2-2-2-2-1m-439 4-1 1 3-1c2-2 1-2-2 0m12 0 1 3 2-1-2-3c-1-1-1 0-1 1m191 1 3 4c2 0 3 0 1-2-1-2-2-3-1-4l-1-1c-1 0-2 1-2 3m152-2c-2 3 1 9 2 6v-5l-2-1m10 3c-3 2-3 4-3 12 1 9 1 9 6 9l6 1 2 1 1-2c0-2 1-3 2-3 2 0 3-9 1-12-1-2-2-3-4-3l-3-2-1 6c0 7 0 8-2 6s-3-9-1-7l1-3c0-4-1-5-5-3m-237 0 2 8c4 9 2 12-3 6-5-5-6-5-7 0v3l-1-3c0-3-1-4-2-4v5c1 5-2 8-4 4-1-3-1-3-2-1s-2 0-1-5l-1-9c-1-1-1 0-1 2 1 2 1 4-1 4s-2 8 1 11c2 1 2 3 1 3-1 1-3-2-5-5-2-6-2-6-4-3l-1 9-1 6-2-7-2-7-1 11-2 26-1 14h16c21 0 21 2 0 3h-15l-2 9c-1 5-2 11-1 13 2 11 2 11 12 11 5 0 9 0 8 1l-3 1c-2-1-4 0-5 1-2 2-3 2-3 0 0-1-1-2-3-1l-5-2c-1-1-1 0-2 6 0 6 1 9 2 10l12 2c8 0 10-1 10-3l1-3 1 3v3c5-1 7 1 6 5-2 4 0 5 3 2 2-1 2-1 1 1-3 3-2 8 1 8 1 0 2 1 1 2l4 1c4 0 5-2 3-4-1 0-1 0 0 0h5c3-1 3-2-1-5-4-2-4-3-1-3h6c2 0 2 0 1-1l-2-3c0-1-2-3-4-3s-3 0-2-2l1-10c0-6 0-8 3-9 2 0 2 0 0-1-2 0-3-2-2-13 1-19 2-24 5-25s3-1 0-1-3-2-3-12c0-16 2-23 5-21 2 0 2 0 0-3-4-4-4-7 0-10 3-2 3-2 0-1-2 0-3 0-3-2s-3-6-6-8l-6-4m43 1c-3 0-4 1-3 4l-1 3c-2 0 0 1 2 2 5 3 7 6 3 6l-4 3c-2 3-2 4 3 4 3 0 6 2 8 3l2 2h2c2 2 3 2 4 0 1-1 0-2-1-3-2 0-1-9 2-13v-7c0-4 0-5-7-5l-10 1m240 0 2 2 2-2-2-2-2 2m-262 2c-1 2 1 5 3 5v-2c-3-1-3-2 0-3v-2l-3 2m-174 2 3 1 1-1c0-1-1-2-3-2-1 0-2 1-1 2m240 0 2 1 1-1-1-2-2 2m-246 2c0 2 1 2 2 2v-3c-1-2-2-2-2 1m22-1 2 2 2-2-2-1-2 1m-10 3c1 2 5 3 5 0 0-1-1-2-3-2l-2 2m23-1c-1 1 0 2 1 3 2 1 3 0 2-3h-3m193-1c-6 2-7 4 0 4 3 0 6-1 7-3s-1-2-7-1m216 3-2 7c-4 5-4 6 0 6 1 0 2 0 1-1-1-3 1-7 7-8 4-1 5-1 3-2-1-1-2-3-1-4 0-1-1-2-3-2-4 0-5 1-5 4m13 0c0 4 3 6 3 2l-2-5c-1 0-2 1-1 3m-428 0 2 1v-1l-1-2-1 2m390 0 3 1c4 0 4-1 1-2l-4 1m-412 2 1 3c2 2 2 1 2-2 0-4-1-4-3-1m13 1c0 2 1 4 3 4l3-2-3-4c-2-1-3-1-3 2m240 1c0 3 0 4 1 2v-5c-1-1-1 0-1 3m126-1 1 2v-4l-1 2m-111 1c0 1 2 2 6 1 10-1 11-4 2-3-5 0-8 1-8 2m-248 1v8c-1 3-1 5 2 5 1 0 2-1 1-3l1-4v-5c-1-3-2-3-4-1m194 0 1 2c2 1 8 0 8-1 1-3-7-4-9-1m-209 4c-2 6-3 5 4 9 7 3 7 3 8-3 1-4 0-5-4-8l-6-2-2 4m360-4 3 2c1 1 3 0 3-1l-3-1h-3m-368 4c1 2 4 4 4 1l-2-2c-2-1-3-1-2 1m355 1c0 2 0 3 1 2v-4c-1-1-1 0-1 2m-343 1c-2 1-2 2 0 4 3 3 6 2 6-2-1-4-4-5-6-2m17 2c0 2 1 3 2 3 3-2 3-4 0-5-2-1-2 0-2 2m213 3c0 1 1 2 3 2 4 0 5-2 1-4-4-1-4-1-4 2m125 1c0 1-10 5-17 6s-6 2 2 3c6 0 7 0 7-2v-1l6 2c9 1 9 1 6 3s-1 5 5 5c4 1 4 0 4-4 0-6-1-7-8-7-5-1-7-3-3-4v-2c-1-1-2 0-2 1m34 4 1 6 5 1c1 1 2 0 2-1s-1-2-3-2-3-1-4-5c-1-6-1-6-1 1m-430-1 4 4-1-4-4-3c-1 0-1 1 1 3m248-1c-4 4-4 8-2 8 1 0 3-1 3-3 1-3 2-3 5-3 2 1 3 0 3-1l-1-2h-4c-2-1-4 0-4 1m170 0 5 1 5-1c0-1-2-2-5-2s-5 1-5 2m-360 1 2 3c1 0 2 0 2-2 0-3-2-3-4-1m-8 1c-1 2 0 4 2 4l2-2c0-3-2-4-4-2m213 1 2 2 1-2-2-2-1 2m-197 2 2 1v-1l-1-2-1 2m416-1-10 2-10 1c0 3 4 8 7 8 2 0 2-1-1-3-4-3-4-3 5-3l8 1c3 4 6-1 4-5-1-2-2-2-3-1m-62 6c0 4 0 4 1 2 0-2 2-4 4-5 4-2 4-2-1-2-4 0-4 0-4 5m22-2 2 7c2 2 2 2 0 3-4 1-2 6 2 5 5-1 6-8 1-9-2-1-4-3-4-6l-1-4Zm-386 0 3 2 1-2-3-2-1 2m357 1c0 2 0 2 1 1v-3c-1-1-1 0-1 2m-30 1 2 1v-1l-1-2c-1 0-2 1-1 2m8 1 1 2 2-2c0-2-1-3-2-3l-1 3m97 2c1 5 6 7 10 4s0-8-6-8c-4-1-4 0-4 4m247-2-1 3c1 1 2-1 2-2 1-5 0-5-1-1m-673 0 3 2c2 0 2-1 2-2l-3-1-2 1m190 0 2 2 2-2-2-1-2 1m472 0c-2 1-2 2-2 3l3-1 2-2h-3m-349 2 2 2 2-2-2-2-2 2m62 0 2 2v-2l-2-2v2m-396 2c0 1 0 2 2 2l2-2-1-2-3 2m42-1h3l-2-1c-2 0-3 1-1 1m186 1 4 2c2 0 3-1 3-2s-1-2-3-2l-4 2m10-1h3l-2-1c-2 0-2 1-1 1m175 1c0 1 1 2 5 2l1-1c0-2-6-3-6-1m133 1c0 3 6 6 10 5 2-1 2-2-1-5-6-3-9-4-9 0m131-2-1 4c0 2 0 2 2 1l1-4c0-1-1-2-2-1m-472 3 2 1 1-1-2-2-1 2m92 0 1 3h3c1-1 0-3-1-4s-2-1-3 1m31 3c0 4-1 5-3 4-3-2-24-1-26 1l-11 2c-8 0-10 0-10 2s1 3 2 3c2 0 3 2 4 5 2 5 2 5 13 5 8 0 10-1 6-2l-4-1h5c3 0 5-1 5-3s1-2 3-1c3 0 3 0 2-1-2-2-1-7 2-7v1l2 4c2 2 3 1 3-2 0-2 0-3 2-3 1 1 2 3 1 5 0 2 1 3 2 3l1-2c0-4 4-5 7-2 4 3 5 3 6-1 0-2 0-3-3-3-1 0-3-1-3-3l-1-2-3-3c0-2-1-2-2 1m43-2c-2 1-1 7 1 7l1-4c0-5 0-5-2-3m16 0c0 1 1 2 3 2l2-2-2-1-3 1m154 1c0 4 2 8 4 8s1-8-1-9-3 0-3 1m-527 1c-1 1 0 2 1 3 2 1 3 0 1-3h-2m366-1h4-4m90 1c1 1 0 1-4 1-5-1-12 3-10 5l8 2 7 1c0 2-5 3-13 3s-9 0-9 3l-3 5c-2 1-2 2-1 2l3-1 6-1c4 1 5 2 4 4 0 5 9 11 11 7 0-2 1-1 3 1 2 3 2 3 2-2s-1-6-8-7l-5-1 3-2h5c1 5 4 1 4-5v-11l-2-5c-2-1-2-1-1 1m-195 2 4 1c3 0 3 0 0-1-3-2-5-2-4 0m80 0c-2 0-1 1 3 2 6 1 9 0 8-3-1-1-2-1-3 1h-8m58-1 3 1h4l-4-2-3 1m102 2c-4 4-4 6-1 6 2 0 6-5 6-8 0-2-2-1-5 2m-603 1c0 2 1 3 1 1v-3l-1 2m293 0c-2 1-2 7-2 14 0 11 1 16 5 16l1-3c-1-1 0-3 2-3 2-1 3-2 2-3-1-2-2-6-2-14l-2-3v-3c1-4-1-4-4-1m140-1c1 1 2 2 3 1 2-1 2-2-1-2l-2 1m-304 3v4c1 1 4-1 4-4s-3-3-4 0m351-1c-1 1-2 2-1 3s2 0 3-1c3-2 1-4-2-2m128 4c-2 7 4 14 6 7 1-2 1 0 1 3 0 6 0 7-3 6s-4-1-3 1c2 2 1 2-1 0-3-3-4-5-1-3 1 1 1 0 1-1 0-4-5-6-6-3-1 1-1 4 1 6 2 6 1 7-3 4-2-2-2-2-1 1s0 2-2-1l-4-6-2 2c-2 2-2 4-1 6l1 8c0 4 0 4-3-2l-3-7-1 4v7l-1 2c-2 0-2 2-1 3l2 20c0 19 2 39 6 61 2 18 3 20 6 19l3 4 2 7-1 2c-1 0-2 1-1 2l-1 3c-3 1 0 9 3 9 2 0 1 0-1 1l-15 1c-12-1-14 0-13 8l1 6 19 1 29 1c9 0 9 0 11-5l-1-7c-3-3-4-10-2-9 1 0 2 0 2-2 1-1 0-2-2-2s-2-1 0-2 2-2 1-3l-2-12c0-11 0-11-5-11-3 0-4-1-4-2 0-2 1-3 4-3 4 0 4 0 4-4a267 267 0 0 1-5-41c0-9-1-10-2-2-1 7-1 7-3 4v-8c0-4 0-4-2-2-2 1-3 3-2 4h-2c-2-2-3-2-4 0-2 3-2 0 0-4 1-2 1-3-1-4v1c1 2-2 2-4-1l-2-6c1-3 2-4 7-5 3-1 5-1 4-2l2-2c3-3 3-3 0-3-2 0-3-1-2-5 2-6 2-7 5-6s3 1 2-2l-1-4h-6c-1-2 1-3 4-3s3-2 3-11c-1-11-5-24-8-24l-2 6m37-4c-1 1 0 3 1 4 2 2 9 0 8-3-1-2-7-3-9-1m-542 2 1 4c1 1 2 0 2-1l-2-4c-1-1-1 0-1 1m364 3c0 5 0 5 7 6 9 0 12 0 10-2l-8-2c-6 0-8-1-8-4-1-3-1-2-1 2m5-3 1 2 3-2-2-1-2 1m154 1c-3 3-2 4 1 2l2-3c-1-1-2 0-3 1m153-1 2 2 2-2-2-2-2 2m-286 1c-3 2-2 10 2 11 2 1 2 2 1 3-3 2-2 7 2 7l2 1 2 4c3 2 3 2 2 0l-2-5-2-2-3-2h3l4 1 1 2c-1 2-1 3 1 2l2-2 1-5c3-6 0-13-5-13l-2-1c1-2-6-3-9-1m13 0h3l-2-1c-2 0-3 0-1 1m10 5 2 8c2 3 2-4-1-10l-2-5Zm2-4 1 1 3-1c1-1 0-2-1-2-2 0-3 1-3 2m-475 1c0 2 4 4 7 3l-3-2-4-1m232 3 2 2 2-1-2-3c-1 0-2 0-2 2m320-1c-2 2-1 3 1 5 3 3 5 1 3-4-2-3-2-3-4-1m-301 3c0 1 1 2 2 1l1-2c-2-3-3-2-3 1m56-1a2 2 0 0 0 4 0l-2-2-2 2m95 0 7 3c1 2 1 2 3 0 2-4 0-5-8-5-7 0-7 0-2 2m49-1 2 3h1l-1-3h-2m-366 5 2 2 2-2-2-3-2 3m374-1c-4 3-4 5 1 5 3 0 5-1 5-3 0-4-2-4-6-2m-394 1v3h-3l-2 1c0 2 3 2 6 0 2-1 3-2 1-3-1-2-2-2-2-1m167 2 2 5c1 0 2-1 2-3l-2-4c-1-1-2 0-2 2m77-1 2 1 1-1-2-2-1 2M3 277l3 2c1 1 3 0 3-1l-3-1H3m487 1c-1 1 0 2 1 3l3-1c0-2-3-4-4-2M13 288c-1 7 0 9 2 7v-7l-1-7Zm117-5c0 3 3 6 5 5v-4c-2-2-5-3-5-1m130 1 2 1c2 0 3 1 3 2h3c2-3 1-3-3-4l-5 1m63-1 3 2c1 2 2 2 2 1l-2-3h-3m159 3 2 8c3 6 8 7 8 2l2-4v3c0 1 0 2 2 2l1-5c-1-3 0-5 1-6 5-2 2-3-7-3-8 0-9 0-9 3m65-2 2 1 3-1c0-1-1-2-3-2l-2 2m-333 2h2l4 1h3l3-1c2 1 3 0 4-1s-2-1-8-1c-5 0-8 0-8 2m-70 3c0 4 4 3 4-1 1-2 0-3-2-3l-2 4m157-2 1 1 2-2-2-1-1 2m326-1v4c1 3 5 1 5-2s-3-4-5-2m28 5c-3 3-3 3 2 3 3 0 4 1 3 2-1 2 4 2 6-1 2-1 1-2-1-5-3-4-5-4-10 1m22 0 2 1h8l7-1-9-1-8 1m-370 2 1 9 1 3 4-4c3-1 3-2 1-2s-3-1-3-2c0-3-3-6-4-4m201 2c-2 2-2 3-1 4 1 0 2 1 1 2-1 2 1 2 4 0v-5c-1-5-1-5-4-1M0 297l3 3c3 0 3 0 0 0-3 1-4 4-1 7 1 2 2 2 3-2 3-7 2-10-2-10l-3 2m28-1 1 1 2-1-1-2-2 2m91 0 2 1v-1l-1-2c-1 0-2 1-1 2m93-1 8 2c5 0 9-1 9-2l-9-1-8 1m55 1c0 2 8 6 9 5 2-2 0-5-4-6l-5 1m120 0-15 6-5 3 5 2c5 2 5 2-2 1l-7-1 4 4 5 3-5-2c-5-2-8 0-5 3 2 2 3 5 0 4-1-1-1 3-2 11a3334 3334 0 0 1 1 34l2-3c0-6 0-6 2-9v-2l4-4c5-3 6-4 9-1l2 4 4 6c3 3 3 5 2 6l-1 3c1 1 0 2-1 2l-2 5c0 3-1 4-3 4s-5 2-6 4l-2 4-1-4c-1-3-2-3-4-1s-2 2-2-1v-3c-1 0-2-1-2-3 0-1 0-2-1-1s-2 12-2 27c0 23 0 27 2 27s3-2 3-5 1-6 3-8c2-3 2-3 2 0l2 2v-9c-1-1 0-3 1-6 2-3 2-3 4-1v7c0 2 0 3 1 2 2-1 2 0 2 3l2 5 1 9c0 7 0 8-4 8l-4 1-2 2c-2 0-3 1-3 2-1 1-1 1-1-2-1-3-1-3-5-2l-5 1v5c1 4 0 6-1 6s-1 1 1 3c3 2 3 2 1 5-3 3-1 8 3 8 6 0 6 3 1 4a3215 3215 0 0 1 140 1c-19-1-22-1-22-4-1-2-2-3-3-2v-1l-1-5c-3-3-2-4 5-4 6 0 5-3-1-4-4 0-4-1-4-14 0-9 0-14 1-13 1 0 2 0 2-2s-1-2-2-2l-1-1 1-2a1667 1667 0 0 1-2-59l-1-12-1-24c-1-8-1-9-9-12l-13-4-7-3c-4-3-46-3-58-1m-154 1 1 2 2-2-1-1-2 1m343 2c0 2 1 3 2 2v-3c-1-3-2-3-2 1m-434 1 2 2c2 0 3-1 3-2 0-2-1-3-3-3-1 0-2 1-2 3m649-1v3c3 5 2 6-1 3-5-4-13-3-18 2l-5 5h7c4-1 7 0 10 1 3 3 2 3-6 3l-11 1c-4 1-2 4 2 4 2 0 3 1 2 3 0 2 1 2 8 3h8l-8 1-13 5c-6 4-7 6-4 7 2 1 1 3 0 6-4 7-4 9-2 9l2-2 4-4h5l-2 4c-1 0-2 2-1 3l-1 4c-2 1-2 8 2 14l3 6 1-5c1-5 2-5 3-1 2 5 4 5 6-1 1-7 4-5 4 4v8l4-11c3-10 4-11 5-6 1 6 6 8 6 2s3-1 5 7c2 13 5 8 4-8v-39c0-22 0-26-3-26l-2-4-1-2c-1 2-2 2-5 1-6-2-7-2-8 0m-50 1-1 5c0 3 0 3 2-1 1-4 1-6-1-4m-617 2h4l-3-1c-2 0-2 0-1 1m211 0h3l-2-1c-2 0-3 0-1 1m108 1v2c1 1 1 0 2-2 1-3 0-3-2 0m47-1c-1 1 0 2 1 3 1 2 1 3-1 3-3 0 4 3 7 3 2 0 2-1 1-3l1-4c1-1 0-2-3-2h-6m35 1c-2 2 1 8 4 8 1 0 1-1-1-2v-7c-1-1-2 0-3 1m-313 2c0 2 0 3 2 1s3-2 3 0c0 1 1 2 3 2l2-2c0-1 2-2 4-1s3 1 2-1c0-1-4-2-9-2s-7 1-7 3m469-1c-1 1 0 2 2 2l2-2-1-2-3 2M8 306v2l2-2v-2l-2 2m115 0 2 2 1-2-2-2-1 2m391 0v2l2-2-1-2-1 2m264 0 3 1h5c0-2-7-2-8-1m-763 1h3c1-1 0-1-2-1s-2 0-1 1m563 2 2 10v3c-1-3-4-3-6 1 0 1 0 2 2 1s2-1 1 1c-1 3 0 3 1 2 3 0 5 4 4 7-1 4 3 47 4 52 2 5 3 5 8 5l6-1c0-2-4-8-6-9-1-1 0-2 2-2 3 0 3-1 2-8 0-5-1-9-2-9v-2l1-6-3-32c1-3-5-13-7-12l-6-2c-4-2-4-2-3 1m-462 0c0 2 5 6 9 8 4 1 5-2 2-5h-4c0 2-1 1-3-1-2-3-4-3-4-2m-106 4c-2 5 1 8 2 3v-5c-1-1-2 0-2 2m46-1 1 2 2-2-1-3c-1 0-2 1-2 3m85-2c-1 2 0 4 3 4l1-2c0-3-2-4-4-2m167 2c0 1 0 2 1 1 1 0 2-1 1-2-1-3-2-2-2 1m343 2c-8 5-3 7 12 3 7-2 9-3 7-4-4-3-14-2-19 1m25 1c-6 2-12 5-15 8-6 7-3 8 8 4l17-6c7-2 8-3 7-6 0-4-5-5-17 0m-90-1 3 5 2 1-2-5c-2-2-3-2-3-1m-474 2c-3 1-3 1 0 3l4 1 3 2c2 1 4 1 4-1l-2-2-4-2c-1-1-3-2-5-1m177 0c-5 2-6 4-4 9 1 3 2 3 2 1s1-3 2-3l1-2c-1-1 0-2 2-3l4-2c0-2-2-2-7 0m241 3c2 2 3 5 3 7 0 3 0 3 2 0 3-5 1-9-4-10h-5Zm148-2c-7 2-8 5-1 4l7-3c2-2 0-2-6-1m-572 3 1 2v-4l-1 2m227 4c1 7 1 7 2 2v-7c-1-1-2 0-2 5m98-3c1 2 0 3-1 2-2 0-3 1-3 4 0 5 1 5 5 6 5 0 5 0 5-5l-4-8c-3-3-3-3-2 1m8 0c0 3 1 4 1 2v-4l-1 2m61-2c-1 2 0 6 3 6 2 0 2-5 0-6h-3m9 0v12c1 0 2-1 2-3l2-6c3-2 3-2 0-3-3-2-4-1-4 0m-300 2c0 3 3 4 10 4 12 0 11-3-1-4h-9m349 2c-1 4 0 5 4 5 3 0 6-4 4-7-1-3-7-2-8 2m-493 5-1 9-3 1c-2 0-3 0-3-2s-1-2-5-2c-3 1-5 2-4 3h4l3 1 5 2c4 1 5 0 6-9 1-2 0-5-1-7 0-3-1-1-1 4m11-1c-3 6-3 6 2 15l6 9h4c6 3 6 0 0-3-3-2-6-4-5-5s2 0 4 1c1 2 3 3 5 2l3 1 4 1h4c0 1 2 2 6 2l6-2-5-1-4-2-6-1-9-2c-2-1-2-2 0-2 1 1 2 0 2-2l2-8c0-2 0-4-4-5-2-1-5-2-6-1l-2-1c-2-3-4-2-7 4m64-2-2 3-1 1c2 2 7-3 7-5s-1-3-2-3l-2 4m116-1c1 2 1 2 2 1l-1-3-1 2m15-1v3c1 1 3-1 2-3s-1-2-2 0m223 0 2 1 1-2-1-1-2 2m24 0c-2 1-2 2 0 2s3-1 3-2c0-2 0-2-3 0m7 0c0 2 3 4 4 2 0-1 0-2-2-3l-2 1m-262 1 3 1h1c-1-2-4-3-4-1m-229 3v3c1 1 1 0 1-2 1-4 0-4-1-1m88-1c-1 1-2 2-1 4 1 1 2 1 3-1 1-4 0-5-2-3m445 0a2 2 0 1 0 4 0 2 2 0 0 0-4 0m52 1 4 4c3 1 3 1 3-2l-1-3-3-1c-2 0-3 0-3 2m-521 1c-3 4-2 9 0 9s3-1 2-2a2 2 0 0 1 0-2l1-1 2 1c1 1 3 2 4 1 1 0 5 0 8 2 5 2 6 2 6 0l-2-4v1l-1 2-3-3-2-1-4-1c-2-1-4-2-5-1l-1-1c0-2-3-2-5 0m192 1c-2 2-1 4 1 4l3-1c0-3-3-4-4-3m187 3c0 2 0 3 1 1v-3l-1 2m-337 1c-2 1-2 7 0 7 3 0 4-5 2-7h-2m160 0-1 2c0 2 1 1 2 0s2-2 1-3l-2 1m350 0c1 1 0 3-1 4-3 3-2 8 1 7l4 1c0 1 0 2-2 2-2-1-4 0-4 2-1 5 2 7 10 5 6-2 8-3 9-6l-1-5-1-5c0-4-1-5-4-5-4 0-4 1-4 3 2 3-1 3-5-2-1-2-2-2-2-1m34 1 1 5c1 1 2 0 2-3 0-5-1-6-3-2m-479 5c0 3 1 6 2 5v-3h3l4-1 5-1h5c0-3-4-5-5-3 0 2-1 2-3 1l-6-3c-4-1-5 0-5 5m462-4 1 2 2-2-1-2-2 2m-292 2 2 1 1-1-2-2-1 2m52 0c-4 4-2 9 2 10 2 1 3 3 2 7 0 8 0 8-2 4-1-3-2-3-2-1l-2 4c-2 1-2 2-2 4v2c-1-1-3 0-3 1-1 3 1 4 3 1l4-1c1 1 2 0 3-2l3-4v4c-1 3 0 3 1 1h2l4 2c4 0 5 0 3-2-2-1-2-1 0 0l7 2c4 1 8 19 4 22v2l1 4 2 2c3 1 5-7 2-9-2-1-1-7 1-8h2c2 1 2 13 1 14-1 0-2 2-2 5l-1 5-2-1c0-2-5-2-6 0 0 1-1 2-2 1-2-1-2-2 0-4 5-5 4-6-7-6l-4-1-4-1-4 2-6 17c-1 3-1 4 1 6s3 3 2 5c-1 1-1 2 1 1 3-1 3 0 3 2s1 3 2 3c1-1 2 0 3 1l8 1c5 0 6 0 2-1l-4-2c0-1 2-2 5-2h5l-2-2-1-1 12-1c11 1 11 1 12-3 0-12-1-25-3-28s-3-5-1-7l3-12c0-9 0-11-2-12s-2-1-1-3c2-2 1-3-1-4h-4c-1 1-2-1-3-4-2-5-9-7-9-3 0 1-1 2-3 2l-2 2c0 2-1 3-2 3l-2 4c-1 2-2 4-3 3l-2 2c0 3 0 3-2 0-3-3-3-7-2-15s1-10-1-12c-3-2-4-2-7 1m-134 2c-2 1-2 3-2 5l-2 3-2 2 4 1c4 0 4-1 5-7 1-7 0-8-3-4m184 0c0 2 0 3 1 1v-3c-1-1-1 0-1 2m-381 1a2 2 0 0 0 3 0 2 2 0 0 0-3 0m-91 8-3 10c-1 4 0 4 4 4 5 0 5 0 3 6l-2 4h34v-7l1-7-5 1c-3 0-5 1-3 2l2 3-2 1-2 1c-2 5-6 4-5-1 0-3 1-5 2-5l2-1-10-1c-14 0-15-1-14-9 0-9-1-10-2-1m14-3c-1 1-2 2-3 0-2-3-4-2-4 2v3c-1 0-2 1-2 3s3 2 11 3c16 0 21-1 17-4l-3-6c-3-5-6-6-6-1l-2 4-1-3c0-3-5-5-7-1m637-2c0 1 1 2 3 1l2-2h-2l-3 1m-612 2c-2 1-2 4 0 4l2-3c0-3-1-3-2-1m5 0c-1 1 1 1 4 1 3-1 5 0 5 1 0 3 5 2 6-1 1-2-1-3-7-3l-8 2m26 2c-2 6-2 8 0 4 1-3 2-3 3 1 1 3 2 3 3 2 1-2-3-11-5-11l-1 4m144-2 2 2v-2l-2-2v2m44 3c0 4 2 5 9 2 4-1 4-1 0-1-2 0-4-2-4-3-2-4-5-3-5 2m176 0c0 2 1 4 2 3v-4c-1-5-2-4-2 1m-302 1v3l3-4c2-2 2-3-1-3l-2 4m346-2 7 2c3 0 5-1 5-2l-7-2c-4 0-6 1-5 2m-275 2h2l2-1-2-1-2 2m-92 1c0 1 1 2 3 2 1 0 2-1 1-2l-2-1-2 1m134 2c-3 1-3 1 1 2l3 1c-1 1-3 2-5 1l-3 1c0 3 4 4 6 2h6l3-1c1 1 2 2 1 3-1 4 4 1 6-3 2-3 2-3-1-2-4 1-13-2-12-4 2-2 0-2-5 0m82 0 1 2 2-2-1-2-2 2m417 1c0 2 0 2 1 1v-3c-1-1-1 0-1 2m-686 0-5 3h-6l6 1c7 2 8 1 6-3 0-1 0-2-1-1m569 3c-1 3 0 4 1 4l1-1c0-2 1-2 2 0 2 1 2 1 2-3-1-5-5-5-6 0m-545 1c-3 2-3 3-1 5v5c-2 3-1 3 1 3 4 0 5-3 3-7l-1-6c1-4 1-4-2 0m8-2 3 2 1-2-3-1c-1 0-2 0-1 1m-22 2c0 2 5 6 7 4 3-1 2-3-2-4h-5m20 3 1 3c3 2 4 0 2-3h-3m382 3c0 3 1 4 1 2v-5l-1 3m-373-1v3c1 2 3-1 2-3s-1-2-2 0m325 0-1 3c0 2 0 3 1 1l2-4h-2m261 0c-3 0-4 1-3 4 1 4 7 6 16 6 6 0 6 0 6-4s-5-8-6-4c-1 2-7 2-8-1l-5-1m-628 4c0 2 0 3 1 2v-5c-1-1-1 0-1 3m47-2 2 2 2-2c0-1-1-2-3-2-1 0-2 1-1 2m526 0c0 1 1 2 3 2s3-1 3-2l-2-2-4 2m-556 1 2 4c2 1 3 1 4-1 1-4 1-4-3-4l-3 1m38 1 2 1 2-1-3-2-1 2m505 0h2l2-1-2-1-2 2m-525 2c1 2 2 2 3 2 1-1 0-4-2-4l-1 2m513 0c1 2 1 3 2 1l-1-3-1 2m-506 1c-1 1 0 2 1 2 2 1 3 0 3-1 0-3-3-4-4-1m8 0v3c2 2 3-1 2-3 0-2-1-2-2 0m7 1-1 4c0 2 1 2 2 1s2-3 1-4c0-1-1-2-2-1m144 0c-2 3-1 4 2 4 5-1 7-5 2-5l-4 1m491 2 1 3v-5l-1 2m-310 1-12 1-11-1-1 6c-2 8-4 11-6 6-1-3-4-3-4 0 0 2-1 4-3 4-3 1-6 7-4 9l2-3c0-2 2-4 4-4 5 0 5-1 8-2 1-1 9-2 17-1h14l-1-8c-1-10-2-10-3-7m54 1c0 3 0 3 1 2v-4c-1-1-1 0-1 2m139-2c-1 1 1 6 3 6s2-2 2-4c-1-3-3-4-5-2m-381 3c-2 1-3 3-3 5 0 6-8 6-10 1-1-4-2-4-3-1l-2 2c-2-1-6 4-4 6 1 1 1 1 2-1 2-3 6-3 5 0-1 2-1 3 1 2l4 3c1 3 2 3 2 1s2-4 4-6c5-3 6-1 3 2-2 2-4 14-2 14l4-4c2-3 2-3 3 0 1 2 2 2 2-3 0-7 0-7-3-4-1 2-3 3-3 2-2-1 3-9 5-8l3-2c1-3-1-4-7-3l-2-2 2-1c2 0 3-1 3-2v-2l-4 1m438 1 2 2 1-2-2-2-1 2m-661 3c-2 2-4 2-6 1-2-3-15-2-17 0H7c0-2-1-2-3 0-1 1-2 4-1 6l-1 4c-3 0-3 19 0 21 2 0 2 1 0 1l-2 2c0 2 1 3 3 2s3 0 2 10l-3 11c-1 1-2 6-2 13l1 11 24-1c13 0 24-1 24-2H33c-11 0-16-1-14-2l38-2a1017 1017 0 0 0 16-2c-28 0-46 0-41-1l23-1c13-1 13-1 13-5 0-3-1-4-4-4l-4 1c0 1-1 2-3 2l-2-1c1-1-3-3-8-4-12-2-15-6-12-12 4-7 7-38 4-45-2-7-2-7-8-3m254 0 3 2 3-2-3-1-3 1m190 2 1 2v-4l-1 2m-323 0c0 3 5 7 9 7 2 0 3-1 3-4 0-2-1-3-3-3l-6-1c-2-1-3 0-3 1m152 0 2 2 2-2a2 2 0 0 0-4 0m306 0v4c1 3 2 3 2-1 0-5-1-6-2-3m-101 2 2 1 2-2-2-1-2 2m125 1-2 4c-1 1 0 1 3 1 5 1 6 0 6-4 0-3-1-4-4-4-2 0-3 1-3 3m-612 0h3c1-1 0-1-2-1s-2 0-1 1m8 0c-3 2-3 2 0 2l4-2v-1l-4 1m173 1c-2 5-1 6 7 6s8 0 4-5c-3-3-4-4-7-1h-1l-1-2-2 2m102 1c-3 3-3 12 0 13l2-6c1-7 3-9 5-3 0 3 4 4 4 2s-6-9-7-9l-4 3m396-1c1 2 6 4 6 1 0 0-1-2-3-2-2-1-3 0-3 1m-687 1c0 1 1 2 3 2s3-1 3-2l-4-2-2 2m276 0v3c3 1 6-1 6-3s-5-2-6 0m-194 2 1 2 3-2c1-1 0-2-2-2l-2 2m168-1-1 5c0 2 1 3 2 1 1-1 2-3 1-4 0-2-1-3-2-2m248 2c-2 1-3 3-2 3 2 2 6 0 6-3s0-3-4 0m-464 0c-5 1-6 1-5 5v5c-2 1-2 13 0 13l1 2h-1c-3-1-2 2 1 6l1 1c-1-2 0-2 3-2 2 1 3 1 3-1s1-3 3-4l2-3 1-1c2 2 8-6 8-10 0-2 1-3 3-3l2 5 3 8 4 6c0 1-1 1-2-1h-2c-2 3 0 9 5 12 4 4 21 6 22 3l-3-1c-5 0-6-2-2-5 2-2 3-2 7 0l7 1c1-1 3 0 4 1 1 2 2 2 3 2l4 2c3 4-1 4-23 5-14 0-21 1-22 2a582 582 0 0 0 126-2h11c2 1 3 1 3-1v-2h-26a1143 1143 0 0 1-56 0l3-2c2 0 0-1-3-2l-7-4 7-6 7-7 2-3c1-1 0-2-3-3-6-2-6-3-3-4 3-3 3-8-1-8s-7 3-7 8l-1 4-5 1c-2 1-2 0-3-6v-4l-2 7c0 2-2 4-3 4l-1-5v-7c-1-2-2-2-2 2 0 6-2 11-4 8s-4-2-4 1c0 2-1 2-4 0-3-1-4-1-6 2-2 2-3 3-4 0l-3-2c-4-1-9-3-9-5l-4-5c-3-4-5-5-11-5l-8-1-6-1m172 3c0 3 1 4 3 3 1 0 2-2 1-4-1-5-4-4-4 1m586-3c-1 1 1 11 2 11l2-6c0-6-1-8-4-5m-681 2 1 2 2-2-2-1-1 1m296 2c2 2 3 3 1 3-2-2-7 2-6 5 1 2 0 2-4 2s-5 1-5 4 1 5 5 6c3 1 5 3 5 5s-1 2-3 2c-3-2-6 5-3 8 1 2 1 3-1 3l-2-2c-1-1-3-1-6 1l-3 4c3 2 2 7-1 6l-3 4c0 2 1 4 5 4h5l1-8c1-6 2-8 3-7l3-1h3c2 1 2 2 0 7l-3 8c0 2 14 4 15 2l4-1c3 0 3 0 0-6-3-4-3-6-2-8 2-4 1-7-2-7-1 0-2 1-2 3s-1 2-1-2v-5c0-2-1-2-2-2-1 1-2-1-3-3l-1-6c1 1 4-2 6-5 3-7 3-13-1-16s-5-1-2 2m26-2 2 2v-2l-1-1c-1 0-2 0-1 1m324 3c2 7 5 9 5 4 0-3-1-6-3-7-3-2-3-2-2 3m9 2c0 5-1 6-4 7-5 1-6 11-2 15 4 3 5 10 3 12l2 1c3 1 3 3 3 5-1 2 0 3 1 3l15 1c10 1 12 1 12-2 0-2-2-2-14-2-13 1-13 1-11-2 3-2 3-2 5 0 1 2 1 2 1 0s6-2 8 0 2 2 2 0c0-1 1-2 3-1 5 2 6-2 6-15l-1-13c-2-2-17-3-18-2l-4 2c-1 0-1-1 1-2s2-1-1-2c-2-1-3-3-3-7 0-3-1-4-2-4-2 0-2 2-2 6m10-1 3 5 1-5c1-4 0-5-3-5s-3 0-1 5m-641-2-1 9-1 10h-3l-2 1 3 3c1 0 2 2 1 3s0 3 1 4c2 3 9 3 9 1s1-2 4-2c4 1 4 1 4-3l-3-4c-2 0-3-3 0-4l1-4c0-2 0-2-2 0-2 1-3 1-3-1 0-5 2-9 5-8 1 0 2-1 2-3 0-3-1-4-8-4-4 0-7 1-7 2m506 3 1 14c1 8 1 9 4 8l6-1c1 0 0-2-3-5-5-4-5-5-5-12 1-5 0-8-2-8-1-1-2 0-1 4m99 1c3 8 5 8 4 1 0-4-1-6-3-6-2-1-2 0-1 5m9-2 1 6 1 2c1-1 2-3 1-5v-5l-2-2c-1 0-2 2-1 4m-657-1c-2 1 0 7 2 7l1-4c0-4-2-5-3-3m105 0h5l-2-1-3 1m196 1c1 2 0 3-2 4-2 0-1 0 1 1 5 0 5-1 2-5-1-3-1-2-1 0m180 0c-1 1 0 1 3 1s4 1 5 3c2 5 4 5 4 2l1-5c0-1-1-2-6-3l-7 2m137 0 2 1c1 0 2 0 1-1l-3-2v2m8 7 3 15c1 5 1 4 1-4l-1-14c0-4-1-6-2-6l-1 9m6-8 2 4c1 2 2 2 2-1l-2-4-2 1m-615 5c0 5 0 5 2 2 2-5 2-6 0-6l-2 4m407-2c0 2 0 3 1 1v-3l-1 2m-503 2c1 2 1 2 2 1l-1-3-1 2m241-1 2 2 1-2-2-2-1 2m243 0 3-1h-2c-2 0-3 0-1 1m115 6c0 5 0 8 2 8 2 1 3 0 2-7 0-10-4-11-4-1m70-6c-2 1-2 2-1 2l4-2 1-2-4 2m12 1c0 3 0 3 1 1 2-1 2-2 2-3l-3 2m-621 2c0 5 3 6 4 2 1-2 0-3-1-4-2 0-3 0-3 2m345 1-1 5 1-2c1-2 2-4 1-5l-1 2m-379 4v2l3-2c2-2 2-3 1-3l-4 3m251-1a2 2 0 0 0 4 0l-2-2-2 2m237 4 1 8c1 6 1 7 4 7s4-8 1-10c-1 0-2-2-1-4 0-1-1-3-3-3-3-1-3 0-2 2m-276 0h3l-2-1c-2 1-3 1-1 1m185 2c-4 2-6 7-2 5l4 1v-1c-1-3 0-5 3-6 2-1 3-1 1-1l-6 2m-296 2v4c2 0 4-5 3-6s-2 0-3 2m49 0c0 3 1 3 6 2 7-1 7-4 0-4-4 0-6 0-6 2m312-2c2 2 5 3 16 4 8 0 8 0 5-3-2-2-3-2-5 0h-4l-7-2-5 1m34 1a2 2 0 0 0 3 0l-2-2-1 2m204 8 1 11v7c-1 7 0 8 2 8s3-1 3-4c0-2 1-3 3-3s2 0 0-2c-2-1-2-1 2-3 4-1 4-2-1-2-4 0-6-1-6-3l-3-15c-1-4-2-3-1 6m25-8 1 1 2-1-1-2-2 2m-479 1c-1 1-2 2 0 2l3-2c1-2 0-2-3 0m77 2c0 3 1 3 1 2v-4l-1 2m79-2a2 2 0 0 0 3 0 2 2 0 0 0-3 0m133 8c1 7 1 8 4 8 5 0 9-4 9-8-1-2-2-3-4-3l-4-1-2-2c-2-1-3 0-3 6m-130-3h3l-2-1c-2 0-3 0-1 1m180 1 3 3c1 0 2-1 2-3l-3-2c-2 0-2 1-2 2m-469 2c-2 2-1 3 4 2 5 0 6 0 4-2-2-3-5-3-8 0m422 1 2 1 2-2-2-1-2 2m-541 1h6l-3-1-3 1m209 3c0 3 1 4 2 3 2 0 2-1 0-3l-2-4v4m155-1c-1 2 1 6 3 6l2-4c1-3-3-5-5-2m41 4c-2 2-1 3 3 3 6 0 6-1 3-4-4-3-4-3-6 1m-272-1h3l-2-1c-2 0-3 1-1 1m285 3 3 1h2l-2-2c-2-1-3 0-3 1m-245 1c0 1 0 2-2 2-2 1 0 1 3 1 7 1 10-2 5-3-6-2-7-2-6 0m487 2c5 2 8 2 7 0l-6-2c-4 0-4 1-1 2m11 0c2 1 2 1 0 2l6 1c6 0 8 0 6-1-1-1-2-2 0-2l3 2 5 1c4 0 4 0 2-1v-2l3 2c1 2 4 0 4-2 0-3-22-2-23 0 0 2 0 2-1 0 0-1-1-2-4-2-2 0-3 1-1 2m48 3c0 1 1 2 2 1l1-2-1-2c-1 0-2 1-2 3m-400 3v4c1 0 4-7 3-8l-3 4m386-3c0 1 1 2 2 1l2-2h-2l-2 1m20 0c-1 1 0 2 1 2l2-2-1-1-2 1m-399 7h6c2-1 0-1-3-1-4 0-6 0-3 1m-101 4 2 1 2-1-2-2-2 2m93-1h8l-4-1c-5 0-7 1-4 1m77 0h19-19m-283 2-35 2c-1 2 91 0 105-2h-70m337 0c0 1 1 2 3 2l2-2-2-1-3 1m231-1c2 2 44 3 44 1l-22-1h-22m46 1c0 1 6 2 17 2l17-1a143 143 0 0 0-34-1m-186 3v7c1 4 1 4-13 6l-23 2 13 1 53 1 30 1-1-5-2-9-1-5h-20l-27-1c-6-1-8-1-9 2m78 2 2 3c2 0 2 1 0 1l-2 2c0 2-1 3-2 3-2 0-2 1-2 3 2 3 4 3 7-4 5-7 5-9 1-9l-4 1M5 472l3 1 3-1c1-1 0-2-2-2l-4 2m9-1c0 2 13 1 15 0l-7-1-8 1m36 0c1 2 13 2 13 0l-7-1-6 1" fill-rule="evenodd"/></g><path d="M426 448v-2h3v3l-1 1-2-1v-1Zm0 0"/></svg>